<?xml version="1.0" encoding="UTF-8" standalone="no"?>
<!-- Generator: Adobe Illustrator 17.1.0, SVG Export Plug-In . SVG Version: 6.00 Build 0)  -->

<svg
   xmlns:dc="http://purl.org/dc/elements/1.1/"
   xmlns:cc="http://creativecommons.org/ns#"
   xmlns:rdf="http://www.w3.org/1999/02/22-rdf-syntax-ns#"
   xmlns:svg="http://www.w3.org/2000/svg"
   xmlns="http://www.w3.org/2000/svg"
   xmlns:sodipodi="http://sodipodi.sourceforge.net/DTD/sodipodi-0.dtd"
   xmlns:inkscape="http://www.inkscape.org/namespaces/inkscape"
   version="1.1"
   id="Capa_1"
   x="0px"
   y="0px"
   viewBox="0 0 109.40323 107.40323"
   xml:space="preserve"
   sodipodi:docname="doctor-stethoscope.svg"
   width="109.40323"
   height="107.40323"
   inkscape:version="0.92.2 5c3e80d, 2017-08-06"><metadata
     id="metadata132"><rdf:RDF><cc:Work
         rdf:about=""><dc:format>image/svg+xml</dc:format><dc:type
           rdf:resource="http://purl.org/dc/dcmitype/StillImage" /><dc:title></dc:title></cc:Work></rdf:RDF></metadata><defs
     id="defs130" /><sodipodi:namedview
     pagecolor="#ffffff"
     bordercolor="#666666"
     borderopacity="1"
     objecttolerance="10"
     gridtolerance="10"
     guidetolerance="10"
     inkscape:pageopacity="0"
     inkscape:pageshadow="2"
     inkscape:window-width="1920"
     inkscape:window-height="955"
     id="namedview128"
     showgrid="false"
     fit-margin-top="0"
     fit-margin-left="0"
     fit-margin-right="0"
     fit-margin-bottom="0"
     inkscape:zoom="2"
     inkscape:cx="303.11147"
     inkscape:cy="91.68044"
     inkscape:window-x="0"
     inkscape:window-y="1"
     inkscape:window-maximized="1"
     inkscape:current-layer="g4656" /><g
     id="g97"
     transform="translate(-46.219162,-96.385696)" /><g
     id="g99"
     transform="translate(-46.219162,-96.385696)" /><g
     id="g101"
     transform="translate(-46.219162,-96.385696)" /><g
     id="g103"
     transform="translate(-46.219162,-96.385696)" /><g
     id="g105"
     transform="translate(-46.219162,-96.385696)" /><g
     id="g107"
     transform="translate(-46.219162,-96.385696)" /><g
     id="g109"
     transform="translate(-46.219162,-96.385696)" /><g
     id="g111"
     transform="translate(-46.219162,-96.385696)" /><g
     id="g113"
     transform="translate(-46.219162,-96.385696)" /><g
     id="g115"
     transform="translate(-46.219162,-96.385696)" /><g
     id="g117"
     transform="translate(-46.219162,-96.385696)" /><g
     id="g119"
     transform="translate(-46.219162,-96.385696)" /><g
     id="g121"
     transform="translate(-46.219162,-96.385696)" /><g
     id="g123"
     transform="translate(-46.219162,-96.385696)" /><g
     id="g125"
     transform="translate(-46.219162,-96.385696)" /><g
     id="g4656"
     transform="translate(-46.219162,-96.385696)"><ellipse
       id="circle4745"
       cx="100.92078"
       cy="150.08731"
       style="fill:#00867d;fill-opacity:0.94736843;stroke:none;stroke-width:1.07963276;stroke-opacity:1"
       rx="54.701614"
       ry="53.701614" /><circle
       style="fill:#4db6ac;fill-opacity:1;stroke:none;stroke-opacity:1"
       r="50.201614"
       cy="150.08731"
       cx="100.92078"
       id="path147" /><g
       style="fill:#82e9de;fill-opacity:0.94736843"
       transform="matrix(0.30216954,0,0,0.30216954,69.917293,115.9295)"
       id="g145"><circle
         style="fill:#82e9de;fill-opacity:0.94736843"
         cx="95.596001"
         cy="10.083"
         r="10.083"
         id="circle91" /><circle
         style="fill:#82e9de;fill-opacity:0.94736843"
         cx="149.01801"
         cy="10.083"
         r="10.083"
         id="circle93" /><path
         style="fill:#82e9de;fill-opacity:0.94736843"
         d="m 177.76616,44.872351 c -5.123,-8.873 -14.298,-14.170001 -24.544,-14.170001 v 10.000001 c 6.631,0 12.568,3.428 15.884,9.17 3.316,5.743 3.316,12.599 0.001,18.342 l -32.122,55.635999 c -3.315,5.742 -9.253,9.17 -15.884,9.171 -6.631,0 -12.569,-3.428 -15.885,-9.171 L 73.095144,68.213351 c -3.315,-5.742 -3.315,-12.599 0,-18.341 3.315,-5.742 9.254,-9.171 15.885,-9.171 V 30.70135 c -10.246,0 -19.422,5.297001 -24.545,14.171001 -5.123,8.874 -5.123,19.468 0,28.341 l 32.121002,55.635999 c 4.272004,7.399 11.366014,12.299 19.545014,13.727 v 26.832 c 0,26.211 -15.47301,47.535 -34.492016,47.535 -19.019,0 -34.491,-21.324 -34.491,-47.535 v -31.948 c 11.39,-2.322 19.988,-12.418 19.988,-24.486 0,-13.778999 -11.21,-24.988999 -24.989,-24.988999 -13.779,0 -24.989,11.21 -24.989,24.988999 0,12.067 8.598,22.163 19.989,24.486 v 31.948 c 0,31.725 19.959,57.535 44.492,57.535 24.532016,0 44.491016,-25.81 44.491016,-57.535 v -26.832 c 8.178,-1.428 15.273,-6.328 19.544,-13.727 l 32.122,-55.635999 c 5.124,-8.873 5.124,-19.468 0,-28.341 z"
         id="path95"
         inkscape:connector-curvature="0" /></g></g></svg>